<?xml version="1.0" standalone="no"?>
<!DOCTYPE svg PUBLIC "-//W3C//DTD SVG 20010904//EN"
 "http://www.w3.org/TR/2001/REC-SVG-20010904/DTD/svg10.dtd">
<svg version="1.0" xmlns="http://www.w3.org/2000/svg"
 width="1024.000000pt" height="1024.000000pt" viewBox="0 0 1024.000000 1024.000000"
 preserveAspectRatio="xMidYMid meet">
<metadata>
Created by potrace 1.11, written by Peter Selinger 2001-2013
</metadata>
<g transform="translate(0.000000,1024.000000) scale(0.100000,-0.100000)"
fill="#000000" stroke="none">
<path d="M4848 10235 c-1 -1 -48 -5 -103 -9 -185 -13 -272 -23 -470 -57 -202
-34 -357 -68 -540 -119 -116 -32 -385 -120 -438 -143 -18 -8 -59 -24 -92 -37
-170 -65 -549 -253 -692 -343 -24 -15 -45 -27 -47 -27 -25 0 -515 -351 -630
-451 -163 -142 -224 -198 -321 -295 -172 -172 -323 -341 -415 -463 -14 -18
-30 -38 -35 -44 -29 -33 -173 -237 -247 -352 -117 -180 -208 -341 -304 -540
-244 -504 -384 -966 -468 -1546 -3 -20 -8 -62 -11 -95 -4 -32 -8 -70 -10 -84
-20 -122 -26 -673 -11 -895 4 -66 9 -122 11 -125 2 -3 6 -39 9 -80 4 -41 10
-100 16 -130 5 -30 12 -73 15 -95 66 -452 231 -971 455 -1430 358 -735 876
-1362 1537 -1858 104 -79 382 -264 463 -309 25 -14 74 -42 110 -63 259 -148
654 -318 955 -410 163 -50 325 -94 325 -89 0 3 8 0 18 -5 9 -5 31 -11 47 -14
17 -3 64 -12 105 -21 113 -23 127 -26 230 -42 148 -22 153 -23 216 -29 32 -3
68 -8 80 -10 120 -26 861 -26 1026 0 13 2 50 6 83 9 33 3 69 8 80 10 11 2 40
7 65 10 25 3 56 8 70 10 14 3 42 7 63 10 21 4 71 13 110 21 40 8 83 16 97 19
38 7 225 53 310 77 502 138 1044 391 1488 694 82 55 311 226 351 260 14 12 73
63 131 112 185 159 403 382 571 583 257 308 451 603 634 965 98 195 112 224
181 390 73 177 180 501 215 655 6 25 13 54 16 65 22 88 68 317 78 386 3 24 10
69 15 99 13 82 24 179 37 350 15 199 7 789 -12 885 -2 11 -7 47 -10 80 -19
193 -62 424 -121 658 -120 480 -313 947 -566 1370 -53 89 -158 252 -181 282
-4 6 -48 66 -99 135 -346 473 -807 911 -1293 1230 -60 39 -122 80 -137 91 -15
10 -30 19 -33 19 -3 0 -23 11 -44 24 -133 85 -397 219 -599 305 -214 92 -582
218 -715 245 -12 3 -67 16 -122 30 -55 13 -117 27 -139 30 -21 4 -41 8 -45 10
-3 2 -26 7 -51 10 -25 3 -56 8 -70 11 -14 3 -41 8 -60 11 -19 2 -46 7 -60 9
-22 4 -54 8 -150 20 -14 2 -59 7 -100 10 -41 4 -86 9 -100 12 -29 4 -667 13
-672 8z"/>
</g>
</svg>
